<svg xmlns="http://www.w3.org/2000/svg" width="24" height="24" viewBox="0 0 24 24">
    <g id="delete">
        <path fill="currentColor"
              d="M7.615 20q-.67 0-1.143-.472Q6 19.056 6 18.385V6H5V5h4v-.77h6V5h4v1h-1v12.385q0 .69-.462 1.152q-.463.463-1.153.463zM17 6H7v12.385q0 .269.173.442t.442.173h8.77q.23 0 .423-.192q.192-.193.192-.423zM9.808 17h1V8h-1zm3.384 0h1V8h-1zM7 6v13z"/>
    </g>

    <g id="add">
        <path fill="currentColor"
              d="M11 9h4v2h-4v4H9v-4H5V9h4V5h2zm-1 11a10 10 0 1 1 0-20a10 10 0 0 1 0 20m0-2a8 8 0 1 0 0-16a8 8 0 0 0 0 16"/>
    </g>

    <g id="visible">
        <g fill="none" stroke="currentColor" stroke-linecap="round" stroke-linejoin="round">
            <path d="M13.23 6.246c.166.207.258.476.258.754c0 .279-.092.547-.258.754C12.18 9.025 9.79 11.5 7 11.5c-2.79 0-5.18-2.475-6.23-3.746A1.208 1.208 0 0 1 .512 7c0-.278.092-.547.258-.754C1.82 4.975 4.21 2.5 7 2.5c2.79 0 5.18 2.475 6.23 3.746"/>
            <path d="M7 9a2 2 0 1 0 0-4a2 2 0 0 0 0 4"/>
        </g>
    </g>

    <g id="hidden">
        <g fill="none" stroke="currentColor" stroke-linecap="round" stroke-linejoin="round">
            <path d="M3.63 3.624C4.621 2.98 5.771 2.5 7 2.5c2.79 0 5.18 2.475 6.23 3.746c.166.207.258.476.258.754c0 .279-.092.547-.258.754c-.579.7-1.565 1.767-2.8 2.583m-1.93.933c-.482.146-.984.23-1.5.23c-2.79 0-5.18-2.475-6.23-3.746A1.208 1.208 0 0 1 .512 7c0-.278.092-.547.258-.754c.333-.402.8-.926 1.372-1.454"/>
            <path d="M8.414 8.414a2 2 0 0 0-2.828-2.828M13.5 13.5L.5.5"/>
        </g>
    </g>

    <g id="change">
        <path d="M19 20H5C4.73478 20 4.48043 20.1054 4.29289 20.2929C4.10536 20.4804 4 20.7348 4 21C4 21.2652 4.10536 21.5196 4.29289 21.7071C4.48043 21.8946 4.73478 22 5 22H19C19.2652 22 19.5196 21.8946 19.7071 21.7071C19.8946 21.5196 20 21.2652 20 21C20 20.7348 19.8946 20.4804 19.7071 20.2929C19.5196 20.1054 19.2652 20 19 20Z"
              fill="currentColor"/>
        <path d="M5.00001 18H5.09001L9.26001 17.62C9.7168 17.5745 10.144 17.3732 10.47 17.05L19.47 8.05C19.8193 7.68097 20.0081 7.18851 19.995 6.68054C19.9819 6.17256 19.7679 5.69051 19.4 5.34L16.66 2.6C16.3024 2.2641 15.8338 2.07136 15.3433 2.05845C14.8529 2.04555 14.3748 2.21337 14 2.53L5.00001 11.53C4.67677 11.856 4.47551 12.2832 4.43001 12.74L4.00001 16.91C3.98654 17.0565 4.00554 17.2041 4.05567 17.3424C4.10579 17.4807 4.18581 17.6062 4.29001 17.71C4.38345 17.8027 4.49426 17.876 4.6161 17.9258C4.73794 17.9755 4.8684 18.0008 5.00001 18ZM15.27 4L18 6.73L16 8.68L13.32 6L15.27 4ZM6.37001 12.91L12 7.32L14.7 10.02L9.10001 15.62L6.10001 15.9L6.37001 12.91Z"
              fill="currentColor"/>
    </g>

    <g id="remove-todo">
        <path fill="currentColor"
              d="M1202 1066q0 40-28 68l-136 136q-28 28-68 28t-68-28L608 976l-294 294q-28 28-68 28t-68-28L42 1134q-28-28-28-68t28-68l294-294L42 410q-28-28-28-68t28-68l136-136q28-28 68-28t68 28l294 294l294-294q28-28 68-28t68 28l136 136q28 28 28 68t-28 68L880 704l294 294q28 28 28 68"/>
    </g>
</svg>