<svg xmlns="http://www.w3.org/2000/svg" width="24" height="24" viewBox="0 0 24 24">
    <g id="delete">
        <path fill="currentColor"
              d="M7.615 20q-.67 0-1.143-.472Q6 19.056 6 18.385V6H5V5h4v-.77h6V5h4v1h-1v12.385q0 .69-.462 1.152q-.463.463-1.153.463zM17 6H7v12.385q0 .269.173.442t.442.173h8.77q.23 0 .423-.192q.192-.193.192-.423zM9.808 17h1V8h-1zm3.384 0h1V8h-1zM7 6v13z"/>
    </g>

    <g id="add">
        <path fill="currentColor"
              d="M11 9h4v2h-4v4H9v-4H5V9h4V5h2zm-1 11a10 10 0 1 1 0-20a10 10 0 0 1 0 20m0-2a8 8 0 1 0 0-16a8 8 0 0 0 0 16"/>
    </g>

    <g id="visible">
        <g fill="none" stroke="currentColor" stroke-linecap="round" stroke-linejoin="round">
            <path d="M13.23 6.246c.166.207.258.476.258.754c0 .279-.092.547-.258.754C12.18 9.025 9.79 11.5 7 11.5c-2.79 0-5.18-2.475-6.23-3.746A1.208 1.208 0 0 1 .512 7c0-.278.092-.547.258-.754C1.82 4.975 4.21 2.5 7 2.5c2.79 0 5.18 2.475 6.23 3.746"/>
            <path d="M7 9a2 2 0 1 0 0-4a2 2 0 0 0 0 4"/>
        </g>
    </g>

    <g id="hidden">
        <g fill="none" stroke="currentColor" stroke-linecap="round" stroke-linejoin="round">
            <path d="M3.63 3.624C4.621 2.98 5.771 2.5 7 2.5c2.79 0 5.18 2.475 6.23 3.746c.166.207.258.476.258.754c0 .279-.092.547-.258.754c-.579.7-1.565 1.767-2.8 2.583m-1.93.933c-.482.146-.984.23-1.5.23c-2.79 0-5.18-2.475-6.23-3.746A1.208 1.208 0 0 1 .512 7c0-.278.092-.547.258-.754c.333-.402.8-.926 1.372-1.454"/>
            <path d="M8.414 8.414a2 2 0 0 0-2.828-2.828M13.5 13.5L.5.5"/>
        </g>
    </g>
</svg>